{
    "asset": {
        "version": "2.0",
        "generator": "VECTARY"
    },
    "nodes": [
        {
            "translation": [
                -0.020721487464121155,
                0.00997925813904702,
                0.01902221865491703
            ],
            "scale": [
                1,
                1,
                1
            ],
            "rotation": [
                -0.06734450982623741,
                -0.3778675382568964,
                -0.027570344373731293,
                0.9229955127946454
            ],
            "name": "Camera",
            "camera": 0
        },
        {
            "translation": [
                -0.046,
                0.03099999999999999,
                0.09
            ],
            "scale": [
                0.001,
                0.001,
                0.001
            ],
            "rotation": [
                0,
                -0.7071067811865475,
                0,
                0.7071067811865476
            ],
            "name": "Point Light",
            "extensions": {
                "KHR_lights_punctual": {
                    "light": 0
                }
            }
        },
        {
            "translation": [
                -2.220446049250313e-19,
                0.0052997913324602415,
                8.881784197001253e-19
            ],
            "scale": [
                0.003721644910499999,
                0.0029416449105000003,
                0.005131644910500002
            ],
            "rotation": [
                -0.4809554900652167,
                -0.4255134731873923,
                0.42309492766880896,
                0.6392267069616653
            ],
            "name": "Cube",
            "mesh": 0
        }
    ],
    "cameras": [
        {
            "name": "Camera",
            "type": "perspective",
            "extras": {
                "targetDistance": 0.026156726162393007
            },
            "perspective": {
                "aspectRatio": 1.5064102564102564,
                "yfov": 0.5846852994180998,
                "zfar": 50,
                "znear": 0.001
            }
        }
    ],
    "extensions": {
        "KHR_lights_punctual": {
            "lights": []
        }
    },
    "materials": [
        {
            "pbrMetallicRoughness": {
                "baseColorFactor": [
                    1,
                    1,
                    1,
                    1
                ],
                "baseColorTexture": {
                    "index": 0,
                    "extensions": {
                        "KHR_texture_transform": {
                            "offset": [
                                0,
                                0
                            ],
                            "scale": [
                                1,
                                1
                            ],
                            "rotation": 0
                        }
                    },
                    "texCoord": 0
                },
                "metallicFactor": 1,
                "roughnessFactor": 1
            },
            "name": "Emily",
            "emissiveFactor": [
                0,
                0,
                0
            ],
            "alphaMode": "OPAQUE",
            "doubleSided": false
        }
    ],
    "textures": [
        {
            "sampler": 0,
            "source": 0
        }
    ],
    "images": [
        {
            "uri": "1623105492_23-phonoteka_org-p-temnii-kamen-tekstura-besshovnaya-krasivo-33.jpg",
            "mimeType": "image/jpeg"
        }
    ],
    "samplers": [
        {
            "wrapS": 10497,
            "wrapT": 10497
        }
    ],
    "meshes": [
        {
            "primitives": [
                {
                    "mode": 4,
                    "attributes": {
                        "POSITION": 1,
                        "NORMAL": 2,
                        "TEXCOORD_0": 3
                    },
                    "material": 0,
                    "indices": 0
                }
            ]
        }
    ],
    "accessors": [
        {
            "bufferView": 0,
            "byteOffset": 0,
            "componentType": 5125,
            "count": 15360,
            "type": "SCALAR"
        },
        {
            "bufferView": 1,
            "byteOffset": 0,
            "componentType": 5126,
            "count": 4551,
            "max": [
                1.5844509601593018,
                1.0881372690200806,
                1.2572118043899536
            ],
            "min": [
                -1.5801273584365845,
                -1.0822725296020508,
                -0.004225746262818575
            ],
            "type": "VEC3"
        },
        {
            "bufferView": 2,
            "byteOffset": 0,
            "componentType": 5126,
            "count": 4551,
            "type": "VEC3"
        },
        {
            "bufferView": 3,
            "byteOffset": 0,
            "componentType": 5126,
            "count": 4551,
            "type": "VEC2"
        }
    ],
    "bufferViews": [
        {
            "buffer": 0,
            "byteOffset": 0,
            "byteLength": 61440,
            "target": 34963
        },
        {
            "buffer": 0,
            "byteOffset": 61440,
            "byteLength": 54612,
            "target": 34962
        },
        {
            "buffer": 0,
            "byteOffset": 116052,
            "byteLength": 54612,
            "target": 34962
        },
        {
            "buffer": 0,
            "byteOffset": 170664,
            "byteLength": 36408,
            "target": 34962
        }
    ],
    "scene": 0,
    "scenes": [
        {
            "nodes": [
                0,
                1,
                2
            ],
            "name": "Project Name"
        }
    ],
    "extensionsUsed": [
        "KHR_texture_transform",
        "KHR_lights_punctual"
    ],
    "extensionsRequired": [
        "KHR_lights_punctual"
    ],
    "buffers": [
        {
            "byteLength": 207072,
            "uri": "ProjectName.bin"
        }
    ]
}